<svg width="1502" height="12" viewBox="0 0 1502 12" fill="none" xmlns="http://www.w3.org/2000/svg">
<path d="M0.858643 5.62226C5.85864 -1.04441 10.8586 -1.04441 15.8586 5.62226C20.8586 12.2889 25.8586 12.2889 30.8586 5.62226C35.8586 -1.04441 40.8586 -1.04441 45.8586 5.62226C50.8586 12.2889 55.8586 12.2889 60.8586 5.62226C65.8586 -1.04441 70.8586 -1.04441 75.8586 5.62226C80.8586 12.2889 85.8586 12.2889 90.8586 5.62226C95.8586 -1.04441 100.859 -1.04441 105.859 5.62226C110.859 12.2889 115.859 12.2889 120.859 5.62226C125.859 -1.04441 130.859 -1.04441 135.859 5.62226C140.859 12.2889 145.859 12.2889 150.859 5.62226C155.859 -1.04441 160.859 -1.04441 165.859 5.62226C170.859 12.2889 175.859 12.2889 180.859 5.62226C185.859 -1.04441 190.859 -1.04441 195.859 5.62226C200.859 12.2889 205.859 12.2889 210.859 5.62226C215.859 -1.04441 220.859 -1.04441 225.859 5.62226C230.859 12.2889 235.859 12.2889 240.859 5.62226C245.859 -1.04441 250.859 -1.04441 255.859 5.62226C260.859 12.2889 265.859 12.2889 270.859 5.62226C275.859 -1.04441 280.859 -1.04441 285.859 5.62226C290.859 12.2889 295.859 12.2889 300.859 5.62226C305.859 -1.04441 310.859 -1.04441 315.859 5.62226C320.859 12.2889 325.859 12.2889 330.859 5.62226C335.859 -1.04441 340.859 -1.04441 345.859 5.62226C350.859 12.2889 355.859 12.2889 360.859 5.62226C365.859 -1.04441 370.859 -1.04441 375.859 5.62226C380.859 12.2889 385.859 12.2889 390.859 5.62226C395.859 -1.04441 400.859 -1.04441 405.859 5.62226C410.859 12.2889 415.859 12.2889 420.859 5.62226C425.859 -1.04441 430.859 -1.04441 435.859 5.62226C440.859 12.2889 445.859 12.2889 450.859 5.62226C455.859 -1.04441 460.859 -1.04441 465.859 5.62226C470.859 12.2889 475.859 12.2889 480.859 5.62226C485.859 -1.04441 490.859 -1.04441 495.859 5.62226C500.859 12.2889 505.859 12.2889 510.859 5.62226C515.859 -1.04441 520.859 -1.04441 525.859 5.62226C530.859 12.2889 535.859 12.2889 540.859 5.62226C545.859 -1.04441 550.859 -1.04441 555.859 5.62226C560.859 12.2889 565.859 12.2889 570.859 5.62226C575.859 -1.04441 580.859 -1.04441 585.859 5.62226C590.859 12.2889 595.859 12.2889 600.859 5.62226C605.859 -1.04441 610.859 -1.04441 615.859 5.62226C620.859 12.2889 625.859 12.2889 630.859 5.62226C635.859 -1.04441 640.859 -1.04441 645.859 5.62226C650.859 12.2889 655.859 12.2889 660.859 5.62226C665.859 -1.04441 670.859 -1.04441 675.859 5.62226C680.859 12.2889 685.859 12.2889 690.859 5.62226C695.859 -1.04441 700.859 -1.04441 705.859 5.62226C710.859 12.2889 715.859 12.2889 720.859 5.62226C725.859 -1.04441 730.859 -1.04441 735.859 5.62226C740.859 12.2889 745.859 12.2889 750.859 5.62226C755.859 -1.04441 760.859 -1.04441 765.859 5.62226C770.859 12.2889 775.859 12.2889 780.859 5.62226C785.859 -1.04441 790.859 -1.04441 795.859 5.62226C800.859 12.2889 805.859 12.2889 810.859 5.62226C815.859 -1.04441 820.859 -1.04441 825.859 5.62226C830.859 12.2889 835.859 12.2889 840.859 5.62226C845.859 -1.04441 850.859 -1.04441 855.859 5.62226C860.859 12.2889 865.859 12.2889 870.859 5.62226C875.859 -1.04441 880.859 -1.04441 885.859 5.62226C890.859 12.2889 895.859 12.2889 900.859 5.62226C905.859 -1.04441 910.859 -1.04441 915.859 5.62226C920.859 12.2889 925.859 12.2889 930.859 5.62226C935.859 -1.04441 940.859 -1.04441 945.859 5.62226C950.859 12.2889 955.859 12.2889 960.859 5.62226C965.859 -1.04441 970.859 -1.04441 975.859 5.62226C980.859 12.2889 985.859 12.2889 990.859 5.62226C995.859 -1.04441 1000.86 -1.04441 1005.86 5.62226C1010.86 12.2889 1015.86 12.2889 1020.86 5.62226C1025.86 -1.04441 1030.86 -1.04441 1035.86 5.62226C1040.86 12.2889 1045.86 12.2889 1050.86 5.62226C1055.86 -1.04441 1060.86 -1.04441 1065.86 5.62226C1070.86 12.2889 1075.86 12.2889 1080.86 5.62226C1085.86 -1.04441 1090.86 -1.04441 1095.86 5.62226C1100.86 12.2889 1105.86 12.2889 1110.86 5.62226C1115.86 -1.04441 1120.86 -1.04441 1125.86 5.62226C1130.86 12.2889 1135.86 12.2889 1140.86 5.62226C1145.86 -1.04441 1150.86 -1.04441 1155.86 5.62226C1160.86 12.2889 1165.86 12.2889 1170.86 5.62226C1175.86 -1.04441 1180.86 -1.04441 1185.86 5.62226C1190.86 12.2889 1195.86 12.2889 1200.86 5.62226C1205.86 -1.04441 1210.86 -1.04441 1215.86 5.62226C1220.86 12.2889 1225.86 12.2889 1230.86 5.62226C1235.86 -1.04441 1240.86 -1.04441 1245.86 5.62226C1250.86 12.2889 1255.86 12.2889 1260.86 5.62226C1265.86 -1.04441 1270.86 -1.04441 1275.86 5.62226C1280.86 12.2889 1285.86 12.2889 1290.86 5.62226C1295.86 -1.04441 1300.86 -1.04441 1305.86 5.62226C1310.86 12.2889 1315.86 12.2889 1320.86 5.62226C1325.86 -1.04441 1330.86 -1.04441 1335.86 5.62226C1340.86 12.2889 1345.86 12.2889 1350.86 5.62226C1355.86 -1.04441 1360.86 -1.04441 1365.86 5.62226C1370.86 12.2889 1375.86 12.2889 1380.86 5.62226C1385.86 -1.04441 1390.86 -1.04441 1395.86 5.62226C1400.86 12.2889 1405.86 12.2889 1410.86 5.62226C1415.86 -1.04441 1420.86 -1.04441 1425.86 5.62226C1430.86 12.2889 1435.86 12.2889 1440.86 5.62226C1445.86 -1.04441 1450.86 -1.04441 1455.86 5.62226C1460.86 12.2889 1465.86 12.2889 1470.86 5.62226C1475.86 -1.04441 1480.86 -1.04441 1485.86 5.62226C1490.86 12.2889 1495.86 12.2889 1500.86 5.62226" stroke="grey"/>
</svg>
